<svg viewBox="0 0 444.4 444.4" xmlns="http://www.w3.org/2000/svg">
  <circle fill="#F5AC37" cx="222.2" cy="222.2" r="222.2" />
  <path fill="#FEFEFD" d="M230.4 238h84.4c1.9 0 2.7 0 2.8-2.5.7-8.5.7-17.2 0-25.8 0-1.7-.8-2.3-2.6-2.3H147c-2.1 0-2.7.6-2.7 2.6v24.7c0 3.2 0 3.2 3.3 3.2h82.8zm77.8-59.5c.2-.7.2-1.4 0-2a80.6 80.6 0 0 0-15.3-21.7 99.8 99.8 0 0 0-71.7-29.9l-74.5.1c-2.1 0-2.4.8-2.4 2.6V177c0 2.1 0 2.7 2.6 2.7h160.3s1.4-.3 1.7-1.1h-.7zm0 88.3c-2.4-.3-4.7-.3-7.1 0h-154c-2.1 0-2.8 0-2.8 2.8v48.2c0 2.2 0 2.8 2.8 2.8h71c3.5.2 6.9 0 10.2-.7a105.9 105.9 0 0 0 40.3-11.4h1a90.2 90.2 0 0 0 38.7-39s1-2.1-.1-2.7zm-191.8 78.8v-76.8c0-1.9 0-2.1-2.2-2.1H84c-1.6 0-2.3 0-2.3-2.2V238h32.2c1.8 0 2.5 0 2.5-2.4v-26.1c0-1.7 0-2-2.2-2H84c-1.6 0-2.3 0-2.3-2.3v-24.5c0-1.5 0-1.9 2.2-1.9h29.8c2.1 0 2.7 0 2.7-2.6v-74.9c0-2.2 0-2.8 2.8-2.8h104.1a135.8 135.8 0 0 1 66 18.6c9 5.3 17.1 11.6 24.4 19a111.4 111.4 0 0 1 25.7 39.7 3.8 3.8 0 0 0 4.2 2.9h24.9c3.1 0 3.1 0 3.3 3v22.8c0 2.2-.8 2.8-3 2.8h-19.2c-2 0-2.5 0-2.4 2.5.8 8.4.8 17 0 25.4 0 2.4 0 2.6 2.6 2.6h22c1 1.3 0 2.5 0 3.8a28 28 0 0 1 0 4.8v16.9c0 2.3-.7 3-2.8 3h-26.3c-1.8-.3-3.6.8-4 2.7a111 111 0 0 1-29.2 42.5c-4.7 4.2-9.6 8.2-14.8 11.9-5.6 3.2-11 6.5-16.7 9.2a150.2 150.2 0 0 1-65.3 13h-96.4v-.1z" />
</svg>
