<svg viewBox="0 0 2000 2000" xmlns="http://www.w3.org/2000/svg">
  <circle fill="#2775ca" cx="1000" cy="1000" r="1000" />
  <path d="M1275 1158c0-146-87-196-262-216-125-17-150-50-150-109s41-96 125-96c75 0 116 25 137 88 4 12 17 21 29 21h67c17 0 29-13 29-29v-5c-17-91-92-162-187-170V542c0-17-13-30-34-34h-62c-17 0-29 13-34 34v95c-125 17-204 101-204 205 0 137 84 191 259 212 116 21 154 46 154 113s-59 112-138 112c-108 0-146-46-158-108-4-17-17-25-29-25h-71c-17 0-29 12-29 29v4c16 104 83 179 221 200v100c0 17 12 29 33 34h62c17 0 30-13 34-34v-100c125-21 208-108 208-221z" fill="#fff" />
  <path d="M788 1596a620 620 0 0 1-371-800 616 616 0 0 1 371-371c16-8 25-21 25-42v-58c0-17-9-29-25-33-5 0-13 0-17 4a749 749 0 0 0 0 1429c17 8 33 0 37-17 5-4 5-8 5-16v-59c0-12-13-29-25-37zm441-1300c-16-9-33 0-37 16-4 5-4 9-4 17v58c0 17 12 34 25 42a620 620 0 0 1 370 800 616 616 0 0 1-371 371c-16 8-24 21-24 42v58c0 17 8 29 25 33 4 0 12 0 16-4a749 749 0 0 0 488-942 756 756 0 0 0-488-491z" fill="#fff" />
</svg>
